<svg xmlns="http://www.w3.org/2000/svg" xmlns:xlink="http://www.w3.org/1999/xlink" width="145" height="35" viewBox="0 0 145 35"><defs><path id="a" d="M0-.1h35.2v35.2H0z"/></defs><clipPath id="b"><use xlink:href="#a" overflow="visible"/></clipPath><path d="M17.6-.1C7.9-.1 0 7.8 0 17.5s7.9 17.6 17.6 17.6 17.6-7.9 17.6-17.6c0-3.5-1-6.7-2.7-9.4.3-.6.5-1.3.5-2 0-2.2-1.8-4-4-4-.7 0-1.4.2-2 .5C24.3.9 21.1-.1 17.6-.1m0 2.2c2.9 0 5.5.8 7.8 2.1-.3.6-.4 1.2-.4 1.9 0 2.2 1.8 4 4 4 .7 0 1.3-.2 1.9-.5 1.4 2.3 2.1 5 2.1 7.8 0 8.5-6.9 15.4-15.4 15.4S2.2 26 2.2 17.5 9.1 2.1 17.6 2.1m0 4.8C11.8 6.9 7 11.6 7 17.5c0 1.8.4 3.4 1.2 4.9-.3.5-.5 1.1-.5 1.7 0 1.8 1.5 3.3 3.3 3.3.6 0 1.2-.2 1.7-.5 1.5.8 3.2 1.2 4.9 1.2 5.9 0 10.6-4.8 10.6-10.6.1-5.9-4.7-10.6-10.6-10.6m0 2.2c4.7 0 8.4 3.8 8.4 8.4s-3.8 8.4-8.4 8.4c-1.3 0-2.4-.3-3.5-.8.1-.3.2-.7.2-1.1 0-1.8-1.5-3.3-3.3-3.3-.4 0-.7.1-1.1.2-.5-1.1-.8-2.2-.8-3.5.1-4.6 3.8-8.3 8.5-8.3m0 4c-2.4 0-4.4 2-4.4 4.4 0 2.4 2 4.4 4.4 4.4s4.4-2 4.4-4.4c0-2.4-2-4.4-4.4-4.4m0 2.2c1.2 0 2.2 1 2.2 2.2 0 1.2-1 2.2-2.2 2.2-1.2 0-2.2-1-2.2-2.2 0-1.2 1-2.2 2.2-2.2" clip-path="url(#b)" fill="#fff"/><g><g fill="#fff"><path d="M53.3 28.2c-.5 0-.9-.1-1.3-.3-.4-.2-.8-.5-1-.9v3.6h-.4v-9.1h.4v1.1c.2-.4.6-.7 1-.9.4-.2.9-.4 1.4-.4.9 0 1.6.3 2.1.9.5.6.8 1.5.8 2.5s-.3 1.9-.8 2.5c-.6.7-1.3 1-2.2 1zm0-.4c.8 0 1.4-.3 1.8-.9.4-.6.7-1.3.7-2.2s-.2-1.6-.7-2.2c-.4-.6-1-.9-1.8-.9-.5 0-.9.1-1.4.4-.4.3-.8.6-1 .9v3.5c.2.4.5.7 1 .9.4.4.9.5 1.4.5zM58.6 28h-.4v-6.6h.4v1.2c.7-.9 1.4-1.3 2.3-1.3v.5h-.3c-.3 0-.7.1-1.1.4-.4.3-.7.6-.8.9V28zM65 28.2c-.9 0-1.6-.3-2.2-1-.6-.7-.8-1.5-.8-2.5s.3-1.8.8-2.5c.6-.7 1.3-1 2.2-1 .9 0 1.7.3 2.2 1 .6.7.8 1.5.8 2.5s-.3 1.8-.8 2.5c-.6.7-1.3 1-2.2 1zm0-.4c.8 0 1.4-.3 1.9-.9.5-.6.7-1.3.7-2.2 0-.8-.2-1.6-.7-2.2-.5-.6-1.1-.9-1.9-.9-.8 0-1.4.3-1.9.9-.5.6-.7 1.3-.7 2.2 0 .9.2 1.6.7 2.2.5.6 1.1.9 1.9.9zM68.8 30.7c-.5 0-.9-.2-1.2-.5l.3-.3c.3.3.6.5 1 .5s.7-.1.9-.3.3-.5.3-1v-7.6h.4v7.6c-.1 1-.6 1.6-1.7 1.6zm1.4-10.4c-.1 0-.2 0-.3-.1-.1-.1-.1-.2-.1-.3s0-.2.1-.3c.1-.1.2-.1.3-.1.1 0 .2 0 .3.1.1.1.1.2.1.3s0 .2-.1.3c-.1.1-.2.1-.3.1zM75.6 28.2c-.9 0-1.7-.3-2.3-1-.6-.6-.9-1.5-.9-2.5s.3-1.8.9-2.4 1.3-1 2.2-1c1 0 1.7.3 2.2 1 .5.7.8 1.5.8 2.4v.1h-5.7c0 .8.3 1.5.8 2.1s1.2.8 2 .8c.9 0 1.7-.3 2.3-1l.2.3c-.7.8-1.5 1.2-2.5 1.2zm2.5-3.7c0-.4-.1-.9-.3-1.3-.2-.4-.5-.8-.9-1.1-.4-.3-.9-.5-1.5-.5-.8 0-1.4.3-1.9.9-.5.6-.7 1.2-.7 2h5.3zM83.2 28.2c-.9 0-1.7-.3-2.2-1-.6-.7-.9-1.5-.9-2.4s.3-1.8.9-2.4c.6-.7 1.3-1 2.2-1 .5 0 .9.1 1.3.3.3.2.7.5 1 .8l-.3.2c-.5-.7-1.1-1-1.9-1-.8 0-1.5.3-2 .9-.5.6-.7 1.3-.7 2.2 0 .9.2 1.6.7 2.2.5.6 1.1.9 1.9.9.8 0 1.4-.3 1.9-1l.3.3c-.3.4-.6.6-1 .8-.2.1-.6.2-1.2.2zM88.4 28.2c-.7 0-1.1-.4-1.1-1.3v-5h-1.1v-.4h1.1v-1.8h.4v1.8H89v.4h-1.3v5c0 .6.2 1 .7 1 .3 0 .6-.1.8-.4l.2.3c-.3.3-.6.4-1 .4z"/></g></g><g><g fill="#fff"><path d="M52.6 15.4h-2V3.9h5.1c1.2 0 2.1.3 2.8 1 .7.7 1 1.5 1 2.6 0 1-.3 1.9-1 2.6-.7.7-1.6 1-2.8 1h-3v4.3zm2.8-6.1c.6 0 1-.2 1.4-.5.4-.3.6-.8.6-1.3 0-.6-.2-1-.6-1.3-.4-.3-.8-.5-1.4-.5h-2.8v3.7h2.8zM70.6 15.4h-2.3l-.8-2.2h-5.3l-.8 2.2H59l4.5-11.5H66l4.6 11.5zm-3.7-4l-2.1-5.5-2.1 5.5h4.2zM82.3 15.4h-2l-6-8.2v8.2h-2V3.9h2.1l5.9 8v-8h2v11.5zM89.9 15.4h-2V5.7h-3.5V3.9h9v1.8h-3.5v9.7zM105.6 15.4h-2v-5h-6v5h-2V3.9h2v4.7h6V3.9h2v11.5zM116.3 15.4h-7.9V3.9h7.9v1.8h-5.9v3h5.8v1.8h-5.8v3.2h5.9v1.7zM128.4 13.9c-1.1 1.1-2.5 1.7-4.2 1.7-1.7 0-3.1-.6-4.2-1.7s-1.7-2.5-1.7-4.3.6-3.2 1.7-4.3c1.1-1.1 2.5-1.7 4.2-1.7 1.7 0 3.1.6 4.2 1.7s1.7 2.5 1.7 4.3-.6 3.2-1.7 4.3zm-4.2-.1c1.1 0 2.1-.4 2.8-1.2.7-.8 1.1-1.8 1.1-3s-.4-2.2-1.1-3c-.7-.8-1.6-1.2-2.8-1.2-1.2 0-2.1.4-2.8 1.2-.7.8-1 1.8-1 3s.3 2.2 1 3c.7.8 1.7 1.2 2.8 1.2zM142.5 15.4h-2l-6-8.2v8.2h-2V3.9h2.1l5.9 8v-8h2v11.5z"/></g></g></svg>
