<svg xmlns="http://www.w3.org/2000/svg" width="180" height="50" viewBox="0 0 180 50"><path d="M25.1-.1C11.3-.1 0 11.1 0 25s11.3 25.1 25.1 25.1S50.2 38.9 50.2 25c0-4.9-1.4-9.5-3.9-13.4.5-.8.7-1.8.7-2.8C47 5.6 44.4 3 41.2 3c-1 0-2 .3-2.8.8C34.6 1.3 30-.1 25.1-.1m0 3.1c4.1 0 7.9 1.1 11.2 3-.4.8-.7 1.7-.7 2.7 0 3.2 2.6 5.8 5.8 5.8 1 0 1.9-.2 2.7-.7 1.9 3.3 3 7.1 3 11.2 0 12.2-9.8 22-22 22s-22-9.8-22-22S13 3 25.1 3m0 6.8C16.8 9.8 9.9 16.6 9.9 25c0 2.5.6 4.9 1.7 7-.4.7-.7 1.5-.7 2.4 0 2.6 2.1 4.7 4.7 4.7.9 0 1.7-.2 2.4-.7 2.1 1.1 4.5 1.7 7 1.7 8.4 0 15.2-6.8 15.2-15.2.1-8.3-6.7-15.1-15.1-15.1m0 3.2c6.7 0 12 5.4 12 12s-5.4 12-12 12c-1.8 0-3.5-.4-5-1.1.2-.5.3-1 .3-1.5 0-2.6-2.1-4.7-4.7-4.7-.5 0-1.1.1-1.5.3-.7-1.5-1.1-3.2-1.1-5 0-6.7 5.4-12 12-12m0 5.7c-3.4 0-6.3 2.8-6.3 6.3 0 3.4 2.8 6.3 6.3 6.3s6.3-2.8 6.3-6.3c0-3.4-2.8-6.3-6.3-6.3m0 3.2c1.8 0 3.1 1.4 3.1 3.1 0 1.8-1.4 3.1-3.1 3.1-1.8 0-3.1-1.4-3.1-3.1 0-1.8 1.4-3.1 3.1-3.1" clip-path="url(#SVGID_2_)" fill="#e02558"/><g fill="#fff"><path d="M66.6 20.5h-2.5V6.2h6.2c1.4 0 2.6.4 3.4 1.3.8.9 1.2 1.9 1.2 3.2 0 1.3-.4 2.3-1.2 3.2-.8.9-2 1.3-3.4 1.3h-3.8v5.3zM70 13c.7 0 1.3-.2 1.7-.6.5-.4.7-1 .7-1.6s-.2-1.2-.7-1.6c-.5-.4-1-.6-1.7-.6h-3.4V13H70zM88.8 20.5H86l-1-2.7h-6.5l-1 2.7h-2.8l5.6-14.2h3.1l5.4 14.2zm-4.6-5l-2.6-6.8-2.6 6.8h5.2zM103.2 20.5h-2.4l-7.4-10.1v10.1h-2.5V6.2h2.6l7.3 9.9V6.2h2.5v14.3zM112.6 20.5h-2.5v-12h-4.3V6.2h11.1v2.2h-4.3v12.1zM131.9 20.5h-2.5v-6.2H122v6.2h-2.5V6.2h2.5V12h7.4V6.2h2.5v14.3zM145.2 20.5h-9.7V6.2h9.7v2.2H138v3.7h7.1v2.2H138v3.9h7.2v2.3zM160.2 18.6c-1.4 1.4-3.1 2.1-5.2 2.1s-3.9-.7-5.2-2.1-2-3.1-2-5.3.7-3.9 2-5.3c1.4-1.4 3.1-2.1 5.2-2.1s3.9.7 5.2 2.1c1.4 1.4 2 3.1 2 5.3s-.7 4-2 5.3zm-5.2-.1c1.4 0 2.5-.5 3.4-1.5.9-1 1.3-2.2 1.3-3.7s-.4-2.7-1.3-3.7-2-1.4-3.4-1.4-2.6.5-3.4 1.4-1.3 2.2-1.3 3.7.4 2.7 1.3 3.7 1.9 1.5 3.4 1.5zM177.5 20.5h-2.4l-7.4-10.1v10.1h-2.5V6.2h2.6l7.3 9.9V6.2h2.5v14.3z"/></g><g fill="#fff"><path d="M67.3 37.4c-.6 0-1.1-.1-1.6-.4-.5-.3-.9-.7-1.2-1.1v4.4H64v-11h.5v1.3c.3-.4.7-.8 1.2-1.1.5-.3 1.1-.4 1.7-.4 1.1 0 1.9.4 2.6 1.1s1 1.8 1 3-.3 2.3-1 3c-.8.8-1.6 1.2-2.7 1.2zm0-.4c.9 0 1.7-.3 2.2-1 .5-.7.8-1.6.8-2.7s-.3-2-.8-2.7c-.5-.7-1.3-1-2.2-1-.6 0-1.1.2-1.7.5-.5.3-.9.7-1.2 1.1v4.2c.3.4.7.8 1.2 1.1.6.3 1.1.5 1.7.5zM73.7 37.2h-.5v-7.9h.5v1.4c.8-1.1 1.7-1.6 2.7-1.6v.6H76c-.4 0-.8.2-1.3.5s-.8.7-1 1.1v5.9zM81.4 37.4c-1.1 0-2-.4-2.7-1.2-.7-.8-1-1.8-1-3s.3-2.2 1-3 1.6-1.2 2.7-1.2 2 .4 2.7 1.2c.7.8 1 1.8 1 3s-.3 2.2-1 3c-.7.8-1.5 1.2-2.7 1.2zm0-.4c1 0 1.7-.4 2.3-1.1s.8-1.6.8-2.6-.3-1.9-.8-2.6-1.3-1.1-2.3-1.1c-1 0-1.7.4-2.3 1.1-.6.7-.9 1.6-.9 2.6s.3 1.9.9 2.6c.6.7 1.4 1.1 2.3 1.1zM86.1 40.4c-.6 0-1.1-.2-1.5-.6l.3-.4c.4.4.7.6 1.2.6.4 0 .8-.1 1.1-.4.3-.3.4-.6.4-1.1v-9.2h.4v9.2c0 1.3-.6 1.9-1.9 1.9zm1.7-12.5c-.1 0-.2 0-.3-.1-.1-.1-.1-.2-.1-.3 0-.1 0-.2.1-.3.1-.1.2-.1.3-.1.1 0 .2 0 .3.1.1.1.1.2.1.3 0 .1 0 .2-.1.3-.1.1-.2.1-.3.1zM94.3 37.4c-1.1 0-2.1-.4-2.8-1.2-.7-.8-1.1-1.8-1.1-3s.4-2.1 1.1-2.9 1.6-1.2 2.7-1.2c1.2 0 2.1.4 2.7 1.2.6.8 1 1.8 1 3v.2H91c0 1 .3 1.9.9 2.5s1.4 1 2.4 1c1.1 0 2-.4 2.8-1.2l.3.3c-.9.9-1.9 1.3-3.1 1.3zm3-4.4c0-.5-.1-1.1-.3-1.6s-.6-.9-1.1-1.3c-.5-.4-1.1-.5-1.8-.5-1 0-1.7.4-2.3 1.1-.5.6-.8 1.4-.8 2.3h6.3zM103.5 37.4c-1.1 0-2-.4-2.7-1.2-.7-.8-1-1.8-1-3s.3-2.2 1-3c.7-.8 1.6-1.2 2.7-1.2.6 0 1.1.1 1.5.3.4.2.8.6 1.2 1l-.4.3c-.6-.8-1.4-1.2-2.3-1.2-1 0-1.8.4-2.4 1.1-.6.7-.9 1.6-.9 2.7s.3 2 .9 2.7c.6.7 1.4 1.1 2.4 1.1s1.7-.4 2.3-1.2l.4.3c-.4.4-.7.8-1.2 1-.3.2-.9.3-1.5.3zM109.8 37.4c-.9 0-1.3-.5-1.3-1.6v-6.1h-1.3v-.4h1.3v-2.2h.5v2.2h1.6v.4H109v6.1c0 .8.3 1.1.9 1.1.4 0 .7-.1.9-.4l.3.4c-.5.3-.9.5-1.3.5z"/></g></svg>
